<svg xmlns="http://www.w3.org/2000/svg" width="84.563" height="46.434" viewBox="0 0 84.563 46.434">
  <g id="Rating" transform="translate(1.276 0.5)">
    <g id="Group_80077" data-name="Group 80077" transform="translate(0 0)">
      <path id="Path_187693" data-name="Path 187693" d="M-12.526-6.2V-9.93h2.2v-2.545h-2.2v-10.2H-16.5l-6.769,10.426V-9.93h7.856V-6.2Zm-2.89-6.275h-5.015l5.015-7.609Zm7.066,4.817A1.751,1.751,0,0,0-6.622-5.928,1.751,1.751,0,0,0-4.892-7.657,1.751,1.751,0,0,0-6.622-9.387,1.751,1.751,0,0,0-8.351-7.657ZM-2.2-8.448A7.529,7.529,0,0,0,3.927-5.9c3.681,0,6.275-2.149,6.275-5.583A5.109,5.109,0,0,0,4.94-16.8a5.368,5.368,0,0,0-3.73,1.433v-4.768H9.115v-2.545h-10.8v9.215L.37-12.87A4.956,4.956,0,0,1,3.977-14.3c2.026,0,3.31,1.161,3.31,2.94,0,1.606-1.309,2.89-3.385,2.89A5.684,5.684,0,0,1-.544-10.424Z" transform="translate(45.072 22.678)" fill="#121212" stroke="rgba(0,0,0,0)" stroke-width="1"/>
      <g id="Group_60116" data-name="Group 60116" transform="translate(0 30.063)">
        <path id="Path_147754" data-name="Path 147754" d="M1707.774,161.77l-4.8,3.016,1.384-5.5L1700,155.647l5.659-.383,2.114-5.264,2.113,5.264,5.66.383-4.354,3.637,1.384,5.5Z" transform="translate(-1700 -150)" fill="#121212" stroke="rgba(0,0,0,0)" stroke-width="1"/>
        <path id="Path_147755" data-name="Path 147755" d="M1966.531,161.77l-4.8,3.016,1.384-5.5-4.353-3.637,5.66-.383,2.114-5.264,2.114,5.264,5.66.383-4.354,3.637,1.384,5.5Z" transform="translate(-1940.101 -150)" fill="#121212" stroke="rgba(0,0,0,0)" stroke-width="1"/>
        <path id="Path_147756" data-name="Path 147756" d="M2225.289,161.77l-4.8,3.016,1.384-5.5-4.352-3.637,5.659-.383,2.114-5.264,2.113,5.264,5.66.383-4.354,3.637,1.385,5.5Z" transform="translate(-2180.203 -150)" fill="#121212" stroke="rgba(0,0,0,0)" stroke-width="1"/>
        <path id="Path_147757" data-name="Path 147757" d="M2484.047,161.77l-4.8,3.016,1.384-5.5-4.353-3.637,5.659-.383,2.115-5.264,2.113,5.264,5.66.383-4.354,3.637,1.385,5.5Z" transform="translate(-2420.305 -150)" fill="#121212" stroke="rgba(0,0,0,0)" stroke-width="1"/>
        <g id="Group_60115" data-name="Group 60115" transform="translate(75.013)">
          <path id="Path_147758" data-name="Path 147758" d="M2748.2,161.77l-4.8,3.016,1.384-5.5-4.353-3.637,5.66-.383L2748.2,150Z" transform="translate(-2740.423 -150)" fill="#121212" stroke="rgba(0,0,0,0)" stroke-width="1"/>
        </g>
      </g>
    </g>
  </g>
</svg>
