<svg xmlns="http://www.w3.org/2000/svg" xmlns:xlink="http://www.w3.org/1999/xlink" width="60" height="60" viewBox="0 0 60 60">
  <defs>
    <clipPath id="clip-path">
      <rect id="Rectangle_13864" data-name="Rectangle 13864" width="36" height="36" transform="translate(0 0)" fill="#fff"/>
    </clipPath>
  </defs>
  <g id="Devices" transform="translate(19311 12747)">
    <rect id="Rectangle_13377" data-name="Rectangle 13377" width="60" height="60" rx="12" transform="translate(-19311 -12747)" fill="#121212"/>
    <g id="Group_80408" data-name="Group 80408" transform="translate(-19299 -12735)">
      <g id="Group_80408-2" data-name="Group 80408" clip-path="url(#clip-path)">
        <path id="Path_187752" data-name="Path 187752" d="M3.067,18.77a1,1,0,0,0-.141,2,1.106,1.106,0,0,0,.141,0H6.041v-2Zm0-5.809a.992.992,0,0,0-1.005.978v.012a1,1,0,0,0,.995,1.005H6.041v-2Zm27.87,6.807H27.962v2h2.975a.992.992,0,0,0,1-.984v-.006a1,1,0,0,0-1-1.005h0m0-6.817H27.962v2h2.975a1,1,0,0,0,1-1v0a.992.992,0,0,0-.994-.99h-.006M19.477,28.305v2.976a1,1,0,0,0,1,1h0a.991.991,0,0,0,.99-.993V28.3Zm-6.945,0v2.976a.992.992,0,0,0,.984,1h.006a1,1,0,0,0,1.005-.995V28.3ZM22.972,7.376H11.032a2.983,2.983,0,0,0-2.985,2.98V23.306a2.983,2.983,0,0,0,2.981,2.985H22.972a2.983,2.983,0,0,0,2.985-2.98V10.356a2.983,2.983,0,0,0-2.985-2.98m-2.7,10.3L17,20.936l-3.27-3.27a2.307,2.307,0,0,1,3.247-3.278l.023.023a2.291,2.291,0,0,1,3.24-.03l.03.03a2.318,2.318,0,0,1,0,3.27m1.2-12.366V2.324a.993.993,0,0,0-.99-.994h0a1,1,0,0,0-1,1V5.3Zm-6.945,0V2.325a1,1,0,0,0-1.005-1h-.006a.993.993,0,0,0-.984,1V5.3Z" transform="translate(0.998 0.664)" fill="#fff"/>
      </g>
    </g>
  </g>
</svg>
