<svg xmlns="http://www.w3.org/2000/svg" width="48" height="48" viewBox="0 0 48 48">
  <g id="Metabolic" transform="translate(19311 12747)">
    <rect id="Rectangle_13377" data-name="Rectangle 13377" width="48" height="48" rx="10" transform="translate(-19311 -12747)" fill="#121212"/>
    <g id="Group_80331" data-name="Group 80331" transform="translate(-19363 -14583)">
      <rect id="Rectangle_13754" data-name="Rectangle 13754" width="24" height="24" transform="translate(64 1848)" fill="none"/>
      <path id="flask" d="M15.248,18.482,8.866,7.444V1.291h1.291V0H2.411V1.291H3.7V7.444L-2.679,18.482a2.342,2.342,0,0,0,0,2.367A2.342,2.342,0,0,0-.63,22.033H13.2a2.367,2.367,0,0,0,2.049-3.551ZM1.766,15.965a.861.861,0,1,1,.861.861A.861.861,0,0,1,1.766,15.965Zm1.721,3.443a.861.861,0,1,1,.861-.861A.861.861,0,0,1,3.487,19.408ZM7.36,17.472a1.291,1.291,0,1,1,1.291-1.291A1.291,1.291,0,0,1,7.36,17.472ZM2.73,11.705,4.993,7.79v-6.5H7.575v6.5l2.264,3.915Zm8.5,7.7a.861.861,0,1,1,.861-.861A.861.861,0,0,1,11.233,19.408Zm0,0" transform="translate(69.715 1848.983)" fill="#fff"/>
    </g>
  </g>
</svg>
