<svg xmlns="http://www.w3.org/2000/svg" width="60" height="60" viewBox="0 0 60 60">
  <g id="Coaches" transform="translate(19311 12747)">
    <rect id="Rectangle_13377" data-name="Rectangle 13377" width="60" height="60" rx="12" transform="translate(-19311 -12747)" fill="#121212"/>
    <g id="groups" transform="translate(-19298 -12733.885)">
      <rect id="Rectangle_12668" data-name="Rectangle 12668" width="33.563" height="34" transform="translate(0.437 -0.115)" fill="none"/>
      <g id="Group_61256" data-name="Group 61256" transform="translate(0 8.543)">
        <path id="Path_101303" data-name="Path 101303" d="M16.837,15.594a14.726,14.726,0,0,1,5.949,1.279,4.245,4.245,0,0,1,2.469,3.88v2.3H8.418V20.768a4.215,4.215,0,0,1,2.469-3.88A14.49,14.49,0,0,1,16.837,15.594Zm-11.225.355a2.843,2.843,0,1,0-2.806-2.843A2.833,2.833,0,0,0,5.612,15.949ZM7.2,17.513a9.675,9.675,0,0,0-1.585-.142,9.645,9.645,0,0,0-3.9.824A2.858,2.858,0,0,0,0,20.825v2.231H6.314V20.768A6.457,6.457,0,0,1,7.2,17.513Zm20.864-1.563a2.843,2.843,0,1,0-2.806-2.843A2.833,2.833,0,0,0,28.061,15.949Zm5.612,4.875A2.859,2.859,0,0,0,31.962,18.2a9.424,9.424,0,0,0-5.486-.682,6.457,6.457,0,0,1,.884,3.255v2.288h6.314ZM16.837,6a4.264,4.264,0,1,1-4.209,4.264A4.231,4.231,0,0,1,16.837,6Z" transform="translate(0 -6)" fill="#fff"/>
      </g>
    </g>
  </g>
</svg>
