<svg xmlns="http://www.w3.org/2000/svg" width="71.199" height="42.949" viewBox="0 0 71.199 42.949">
  <path id="Users" d="M-26.507-8.244A7.86,7.86,0,0,0-20.1-5.5c3.916,0,6.383-2.06,6.383-4.933a4.261,4.261,0,0,0-3.941-4.119,4.144,4.144,0,0,0,3.687-3.891c0-2.848-2.467-4.577-6.128-4.577a7.853,7.853,0,0,0-6.179,2.67l1.526,1.856a5.963,5.963,0,0,1,4.374-1.882c1.907,0,3.433.814,3.433,2.39,0,1.551-1.5,2.238-3.484,2.238-.661,0-1.653,0-1.958-.025v2.67c.254-.025,1.246-.025,1.958-.025,2.416,0,3.763.712,3.763,2.39,0,1.577-1.3,2.594-3.535,2.594a6.331,6.331,0,0,1-4.7-2.06Zm15.028-6.027C-11.479-10-9.445-5.5-4.69-5.5S2.1-10,2.1-14.271.066-23.018-4.69-23.018-11.479-18.543-11.479-14.271Zm10.553,0c0,3.229-.992,6.128-3.763,6.128s-3.763-2.9-3.763-6.128.992-6.1,3.763-6.1S-.926-17.5-.926-14.271Zm-29,33.9V2.665h-4.2l-4.628,11.417-4.6-11.417h-4.2V19.625h2.975V6.784l5.187,12.841h1.271L-32.9,6.784V19.625ZM-25.07,5.309a1.65,1.65,0,0,0,1.653-1.653A1.65,1.65,0,0,0-25.07,2a1.666,1.666,0,0,0-1.653,1.653A1.666,1.666,0,0,0-25.07,5.309Zm1.348,14.316V7.343h-2.67V19.625Zm6.128,0V2.665h-2.67V19.625Zm6.128,0V2.665h-2.67V19.625ZM-6.686,5.309A1.65,1.65,0,0,0-5.033,3.656,1.65,1.65,0,0,0-6.686,2,1.666,1.666,0,0,0-8.338,3.656,1.666,1.666,0,0,0-6.686,5.309Zm1.348,14.316V7.343h-2.67V19.625Zm9,.305A6.146,6.146,0,0,0,10,13.472,6.14,6.14,0,0,0,3.664,7.038a6.148,6.148,0,0,0-6.306,6.433A6.155,6.155,0,0,0,3.664,19.93Zm0-2.365C1.4,17.566.129,15.659.129,13.472.129,11.31,1.4,9.4,3.664,9.4c2.289,0,3.56,1.907,3.56,4.069C7.224,15.659,5.952,17.566,3.664,17.566Zm19.987,2.06V10.98c0-2.517-1.322-3.941-3.967-3.941a5.811,5.811,0,0,0-4.323,1.983V7.343h-2.67V19.625h2.67V11.056A4.043,4.043,0,0,1,18.514,9.4c1.5,0,2.467.636,2.467,2.543v7.679Z" transform="translate(47.549 23.018)" fill="#121212"/>
</svg>
