<svg xmlns="http://www.w3.org/2000/svg" width="62.133" height="42.949" viewBox="0 0 62.133 42.949">
  <path id="Weight_Lost" data-name="Weight Lost" d="M-7.161-5.616V-22.678H-9.77l-4.911,4.962,1.739,1.816,2.788-2.891V-5.616ZM-32.383,20.271A7.808,7.808,0,0,0-25.4,16.434l-2.558-1.3a5.066,5.066,0,0,1-4.425,2.481,5.82,5.82,0,0,1-5.755-6.165,5.82,5.82,0,0,1,5.755-6.165,5.12,5.12,0,0,1,4.425,2.481l2.558-1.3A7.777,7.777,0,0,0-32.383,2.62a8.576,8.576,0,0,0-8.825,8.825A8.576,8.576,0,0,0-32.383,20.271Zm12-.307V11.548a4.266,4.266,0,0,1,3.172-1.637,3.959,3.959,0,0,1,.844.077V7.327a5.276,5.276,0,0,0-4.016,2.1V7.608h-2.686V19.964Zm11.767.307a6.183,6.183,0,0,0,6.369-6.5A6.176,6.176,0,0,0-8.619,7.3a6.185,6.185,0,0,0-6.344,6.472A6.191,6.191,0,0,0-8.619,20.271Zm0-2.379c-2.277,0-3.556-1.918-3.556-4.118,0-2.174,1.279-4.093,3.556-4.093,2.3,0,3.581,1.918,3.581,4.093C-5.038,15.973-6.317,17.892-8.619,17.892ZM3.147,19.964V11.548A4.266,4.266,0,0,1,6.319,9.911a3.959,3.959,0,0,1,.844.077V7.327a5.276,5.276,0,0,0-4.016,2.1V7.608H.462V19.964Zm5.423-6.19a6.211,6.211,0,0,0,6.472,6.5,7.2,7.2,0,0,0,5.014-1.791l-1.228-1.765a5.229,5.229,0,0,1-3.5,1.356,3.742,3.742,0,0,1-3.939-3.4h9.541v-.639c0-3.888-2.379-6.727-6.088-6.727A6.245,6.245,0,0,0,8.57,13.773ZM14.837,9.5a3.3,3.3,0,0,1,3.479,3.274H11.359A3.408,3.408,0,0,1,14.837,9.5Z" transform="translate(41.208 22.678)" fill="#121212"/>
</svg>
